# xmcd
#
# Track frame offsets:
#	150
#	6712
#	62777
#	122067
#	183867
#
# Disc length: 3273 seconds
#
# Revision: 2
# Processed by: cddbd v1.5.2PL0 Copyright (c) Steve Scherf et al.
# Submitted via: EZCDAudioConverter 8.0.2.1
#
DISCID=410cc705
DTITLE=Sơn Hạ - Liên Khúc Quê Hương
DYEAR=2012
DGENRE=World Pop
TTITLE0=Lời giới thiệu
TTITLE1=Part 1. LK Đêm tạ từ
TTITLE2=Part 2. LK Kỷ niệm tình tôi
TTITLE3=Part 3. LK Hành trang nước mắt
TTITLE4=Part 4. LK Trầu cau
EXTD=
EXTT0=
EXTT1=
EXTT2=
EXTT3=
EXTT4=
PLAYORDER=
